<svg xmlns="http://www.w3.org/2000/svg" version="1.1" xmlns:xlink="http://www.w3.org/1999/xlink" width="1000" height="1000"><g clip-path="url(#SvgjsClipPath1466)"><rect width="1000" height="1000" fill="#395665"></rect><g transform="matrix(0.6481481481481481,0,0,0.6481481481481481,150,150)"><svg xmlns="http://www.w3.org/2000/svg" version="1.1" xmlns:xlink="http://www.w3.org/1999/xlink" width="1080" height="1080"><svg xmlns="http://www.w3.org/2000/svg" xmlns:xlink="http://www.w3.org/1999/xlink" width="1080" zoomAndPan="magnify" viewBox="0 0 810 809.999993" height="1080" preserveAspectRatio="xMidYMid meet" version="1.2"><defs><clipPath id="SvgjsClipPath1466"><rect width="1000" height="1000" x="0" y="0" rx="350" ry="350"></rect></clipPath></defs><g id="6560b0f7e5"><rect x="0" width="810" y="0" height="809.999993" style="fill:#ffffff;fill-opacity:1;stroke:none;"></rect><rect x="0" width="810" y="0" height="809.999993" style="fill:#395665;fill-opacity:1;stroke:none;"></rect><g style="fill:#fef4c8;fill-opacity:1;"><g transform="translate(36.256617, 526.874993)"><path style="stroke:none" d="M 33.71875 -257 C 45.207031 -257 56.132812 -257.554688 66.5 -258.671875 C 76.863281 -259.796875 87.664062 -260.359375 98.90625 -260.359375 C 104.144531 -260.359375 110.320312 -260.046875 117.4375 -259.421875 C 124.5625 -258.796875 131.992188 -257.421875 139.734375 -255.296875 C 147.472656 -253.179688 154.59375 -249.875 161.09375 -245.375 C 166.582031 -241.382812 171.757812 -235.765625 176.625 -228.515625 C 181.5 -221.273438 183.9375 -212.535156 183.9375 -202.296875 C 183.9375 -190.554688 180.503906 -179.566406 173.640625 -169.328125 C 166.773438 -159.085938 158.34375 -150.847656 148.34375 -144.609375 C 147.851562 -144.109375 147.609375 -143.734375 147.609375 -143.484375 C 147.609375 -143.234375 147.976562 -142.859375 148.71875 -142.359375 C 158.46875 -140.609375 167.273438 -136.671875 175.140625 -130.546875 C 183.003906 -124.429688 189.242188 -116.816406 193.859375 -107.703125 C 198.484375 -98.585938 200.796875 -88.410156 200.796875 -77.171875 C 200.796875 -65.179688 198.359375 -54.441406 193.484375 -44.953125 C 188.617188 -35.460938 182.5625 -27.46875 175.3125 -20.96875 C 168.070312 -14.476562 160.707031 -9.613281 153.21875 -6.375 C 151.21875 -5.375 146.597656 -3.6875 139.359375 -1.3125 C 132.117188 1.0625 121.753906 2.25 108.265625 2.25 C 99.773438 2.25 91.285156 1.875 82.796875 1.125 C 74.304688 0.375 65.6875 0 56.9375 0 C 50.445312 0 43.828125 0.125 37.078125 0.375 C 30.335938 0.625 22.722656 0.75 14.234375 0.75 L 13.484375 0.75 C 11.734375 0.75 10.109375 0.3125 8.609375 -0.5625 C 7.117188 -1.4375 6.375 -3.992188 6.375 -8.234375 C 6.375 -11.734375 7.867188 -13.796875 10.859375 -14.421875 C 13.859375 -15.046875 19.351562 -15.859375 27.34375 -16.859375 C 29.34375 -17.359375 31.15625 -17.921875 32.78125 -18.546875 C 34.40625 -19.171875 35.21875 -21.101562 35.21875 -24.34375 L 35.21875 -229.265625 C 35.21875 -234.515625 33.59375 -237.703125 30.34375 -238.828125 C 27.09375 -239.953125 22.222656 -240.765625 15.734375 -241.265625 C 13.984375 -241.265625 12.421875 -241.820312 11.046875 -242.9375 C 9.671875 -244.0625 8.984375 -246.625 8.984375 -250.625 C 8.984375 -255.125 11.234375 -257.375 15.734375 -257.375 C 16.484375 -257.375 18.289062 -257.3125 21.15625 -257.1875 C 24.03125 -257.0625 28.21875 -257 33.71875 -257 Z M 150.59375 -194.4375 C 150.59375 -198.925781 149.78125 -203.976562 148.15625 -209.59375 C 146.539062 -215.21875 143.671875 -220.648438 139.546875 -225.890625 C 135.421875 -231.140625 129.800781 -235.445312 122.6875 -238.8125 C 115.570312 -242.1875 106.519531 -243.875 95.53125 -243.875 C 91.78125 -243.875 86.96875 -243.5625 81.09375 -242.9375 C 75.226562 -242.3125 71.300781 -241.253906 69.3125 -239.765625 C 68.3125 -239.015625 67.75 -238.203125 67.625 -237.328125 C 67.5 -236.453125 67.4375 -235.640625 67.4375 -234.890625 L 67.4375 -153.96875 C 67.4375 -152.46875 67.625 -151.28125 68 -150.40625 C 68.375 -149.53125 69.429688 -149.09375 71.171875 -149.09375 L 92.90625 -149.09375 C 97.90625 -149.09375 103.710938 -149.53125 110.328125 -150.40625 C 116.941406 -151.28125 123.429688 -153.40625 129.796875 -156.78125 C 136.171875 -160.15625 141.359375 -165.585938 145.359375 -173.078125 C 148.847656 -180.066406 150.59375 -187.1875 150.59375 -194.4375 Z M 96.28125 -15.359375 C 108.769531 -15.359375 120.382812 -17.601562 131.125 -22.09375 C 141.863281 -26.59375 150.601562 -33.335938 157.34375 -42.328125 C 164.082031 -51.316406 167.453125 -62.304688 167.453125 -75.296875 C 167.453125 -82.785156 166.015625 -90.335938 163.140625 -97.953125 C 160.273438 -105.578125 155.65625 -112.382812 149.28125 -118.375 C 142.914062 -124.375 134.238281 -128.5 123.25 -130.75 C 118.257812 -132 113.078125 -132.679688 107.703125 -132.796875 C 102.335938 -132.921875 97.03125 -132.984375 91.78125 -132.984375 L 72.671875 -132.984375 C 70.179688 -132.984375 68.6875 -132.421875 68.1875 -131.296875 C 67.6875 -130.179688 67.4375 -128.875 67.4375 -127.375 L 67.4375 -30.71875 C 67.4375 -27.46875 67.929688 -24.59375 68.921875 -22.09375 C 69.921875 -19.601562 73.171875 -17.859375 78.671875 -16.859375 C 81.421875 -16.609375 84.289062 -16.296875 87.28125 -15.921875 C 90.28125 -15.546875 93.28125 -15.359375 96.28125 -15.359375 Z M 96.28125 -15.359375 "></path></g></g><g style="fill:#e09a25;fill-opacity:1;"><g transform="translate(247.557391, 526.874993)"><path style="stroke:none" d="M 163.34375 -192.1875 C 168.332031 -192.1875 171.328125 -190.875 172.328125 -188.25 C 173.328125 -185.625 173.828125 -183.3125 173.828125 -181.3125 L 173.828125 -112.390625 C 173.828125 -110.390625 173.328125 -108.078125 172.328125 -105.453125 C 171.328125 -102.828125 168.332031 -101.515625 163.34375 -101.515625 C 158.59375 -101.515625 155.71875 -102.453125 154.71875 -104.328125 C 153.71875 -106.203125 153.21875 -108.015625 153.21875 -109.765625 L 153.21875 -130 C 153.21875 -133.738281 152.28125 -136.046875 150.40625 -136.921875 C 148.539062 -137.796875 146.234375 -138.234375 143.484375 -138.234375 L 91.78125 -138.234375 C 87.539062 -138.234375 83.421875 -137.546875 79.421875 -136.171875 C 75.421875 -134.796875 73.421875 -130.488281 73.421875 -123.25 L 73.421875 -37.46875 C 73.421875 -34.21875 74.046875 -31.21875 75.296875 -28.46875 C 76.546875 -25.71875 79.921875 -23.972656 85.421875 -23.234375 C 91.160156 -22.234375 96.960938 -21.546875 102.828125 -21.171875 C 108.703125 -20.796875 114.507812 -20.609375 120.25 -20.609375 C 123.25 -20.609375 127.367188 -20.734375 132.609375 -20.984375 C 137.859375 -21.234375 143.289062 -21.671875 148.90625 -22.296875 C 154.53125 -22.921875 159.710938 -23.726562 164.453125 -24.71875 C 169.203125 -25.71875 172.453125 -26.96875 174.203125 -28.46875 C 175.953125 -29.71875 177.945312 -32.273438 180.1875 -36.140625 C 182.4375 -40.015625 184.8125 -44.320312 187.3125 -49.0625 C 189.8125 -53.8125 192.179688 -58 194.421875 -61.625 C 196.671875 -65.25 198.546875 -67.5625 200.046875 -68.5625 C 201.546875 -69.3125 202.796875 -69.6875 203.796875 -69.6875 C 205.046875 -69.6875 206.484375 -69.0625 208.109375 -67.8125 C 209.734375 -66.5625 210.546875 -64.3125 210.546875 -61.0625 L 210.546875 -60.6875 C 210.546875 -60.1875 210.484375 -59.4375 210.359375 -58.4375 C 210.234375 -57.4375 209.796875 -55.3125 209.046875 -52.0625 C 208.296875 -48.820312 207.109375 -43.703125 205.484375 -36.703125 C 203.859375 -29.710938 201.671875 -19.976562 198.921875 -7.5 C 198.421875 -4.75 197.421875 -2.8125 195.921875 -1.6875 C 194.429688 -0.5625 191.6875 0 187.6875 0 L 58.8125 0 C 44.832031 0 34.46875 0.75 27.71875 2.25 C 20.976562 3.75 15.859375 4.5 12.359375 4.5 C 8.867188 4.5 6.5 2.875 5.25 -0.375 C 4 -3.625 3.375 -5.75 3.375 -6.75 C 3.375 -8.988281 4.0625 -10.734375 5.4375 -11.984375 C 6.8125 -13.234375 9.492188 -14.609375 13.484375 -16.109375 C 17.484375 -17.609375 23.601562 -19.859375 31.84375 -22.859375 C 35.34375 -24.097656 37.585938 -25.84375 38.578125 -28.09375 C 39.578125 -30.34375 40.078125 -33.46875 40.078125 -37.46875 L 40.078125 -232.640625 C 40.078125 -235.390625 39.453125 -237.140625 38.203125 -237.890625 C 36.960938 -238.640625 34.21875 -239.390625 29.96875 -240.140625 C 22.726562 -241.378906 16.796875 -242.0625 12.171875 -242.1875 C 7.554688 -242.3125 5.25 -245.125 5.25 -250.625 C 5.25 -254.375 5.992188 -256.679688 7.484375 -257.546875 C 8.984375 -258.421875 10.609375 -258.859375 12.359375 -258.859375 L 184.6875 -258.859375 C 187.4375 -258.859375 189.375 -258.359375 190.5 -257.359375 C 191.625 -256.367188 192.4375 -254.875 192.9375 -252.875 C 194.1875 -247.375 195.617188 -240.816406 197.234375 -233.203125 C 198.859375 -225.585938 200.359375 -218.84375 201.734375 -212.96875 C 203.109375 -207.101562 203.796875 -203.796875 203.796875 -203.046875 C 203.796875 -202.046875 203.296875 -200.859375 202.296875 -199.484375 C 201.296875 -198.109375 199.171875 -197.421875 195.921875 -197.421875 C 192.679688 -197.421875 190.375 -198.234375 189 -199.859375 C 187.625 -201.484375 186.4375 -202.921875 185.4375 -204.171875 C 179.195312 -215.410156 174.703125 -223.460938 171.953125 -228.328125 C 169.203125 -233.203125 166.890625 -236.203125 165.015625 -237.328125 C 163.148438 -238.453125 160.21875 -239.015625 156.21875 -239.015625 L 85.796875 -239.015625 C 80.296875 -239.015625 76.984375 -237.515625 75.859375 -234.515625 C 74.734375 -231.515625 74.171875 -228.269531 74.171875 -224.78125 L 74.171875 -168.203125 C 74.171875 -166.453125 74.546875 -164.640625 75.296875 -162.765625 C 76.046875 -160.898438 78.171875 -159.96875 81.671875 -159.96875 L 138.984375 -159.96875 C 142.234375 -159.96875 145.414062 -160.53125 148.53125 -161.65625 C 151.65625 -162.78125 153.21875 -166.335938 153.21875 -172.328125 L 153.21875 -183.9375 C 153.21875 -185.9375 153.78125 -187.8125 154.90625 -189.5625 C 156.03125 -191.3125 158.84375 -192.1875 163.34375 -192.1875 Z M 163.34375 -192.1875 "></path></g></g><g style="fill:#e09a25;fill-opacity:1;"><g transform="translate(464.094635, 526.874993)"><path style="stroke:none" d="M 152.46875 -11.984375 C 169.457031 -11.984375 184.941406 -16.476562 198.921875 -25.46875 C 212.910156 -34.46875 224.148438 -47.332031 232.640625 -64.0625 C 241.128906 -80.789062 245.375 -100.519531 245.375 -123.25 C 245.375 -134.988281 244.0625 -147.347656 241.4375 -160.328125 C 238.820312 -173.316406 234.515625 -185.992188 228.515625 -198.359375 C 222.523438 -210.722656 214.160156 -221.398438 203.421875 -230.390625 C 194.929688 -237.640625 185.253906 -243.195312 174.390625 -247.0625 C 163.523438 -250.9375 152.347656 -252.875 140.859375 -252.875 C 128.867188 -252.875 117.128906 -250.625 105.640625 -246.125 C 94.148438 -241.632812 83.722656 -234.953125 74.359375 -226.078125 C 64.992188 -217.210938 57.5625 -206.160156 52.0625 -192.921875 C 46.570312 -179.691406 43.828125 -164.335938 43.828125 -146.859375 C 43.828125 -130.617188 46.320312 -114.503906 51.3125 -98.515625 C 56.3125 -82.535156 63.554688 -68.050781 73.046875 -55.0625 C 82.535156 -42.082031 93.960938 -31.65625 107.328125 -23.78125 C 120.691406 -15.914062 135.738281 -11.984375 152.46875 -11.984375 Z M 170.828125 4.125 C 169.328125 4.125 166.453125 4.4375 162.203125 5.0625 C 157.960938 5.6875 152.472656 6 145.734375 6 C 126.503906 6 108.332031 2.191406 91.21875 -5.421875 C 74.113281 -13.046875 59.441406 -22.976562 47.203125 -35.21875 C 34.460938 -48.195312 24.660156 -63.175781 17.796875 -80.15625 C 10.929688 -97.144531 7.5 -114.632812 7.5 -132.625 C 7.5 -151.101562 11.179688 -169.082031 18.546875 -186.5625 C 25.910156 -204.039062 36.210938 -219.273438 49.453125 -232.265625 C 61.941406 -244.753906 76.613281 -254.367188 93.46875 -261.109375 C 110.320312 -267.859375 127.617188 -271.234375 145.359375 -271.234375 C 160.835938 -271.234375 176.816406 -268.234375 193.296875 -262.234375 C 209.785156 -256.242188 224.523438 -246.753906 237.515625 -233.765625 C 250.753906 -220.773438 260.929688 -205.414062 268.046875 -187.6875 C 275.160156 -169.957031 278.71875 -151.847656 278.71875 -133.359375 C 278.71875 -116.128906 275.78125 -99.457031 269.90625 -83.34375 C 264.039062 -67.238281 255.988281 -52.503906 245.75 -39.140625 C 235.507812 -25.785156 223.773438 -14.613281 210.546875 -5.625 C 210.296875 -5.375 210.046875 -5.125 209.796875 -4.875 C 209.546875 -4.625 209.421875 -4.25 209.421875 -3.75 C 209.421875 -3.25 209.796875 -2.75 210.546875 -2.25 C 219.785156 4 227.335938 10.179688 233.203125 16.296875 C 239.066406 22.410156 244.5 28.085938 249.5 33.328125 C 254.5 38.578125 260.117188 43.328125 266.359375 47.578125 C 276.347656 54.316406 286.960938 57.6875 298.203125 57.6875 C 300.703125 57.6875 302.445312 57.625 303.4375 57.5 C 304.4375 57.375 305.3125 57.3125 306.0625 57.3125 C 309.0625 57.3125 310.5625 58.5625 310.5625 61.0625 C 310.5625 63.0625 308.875 65.242188 305.5 67.609375 C 302.132812 69.984375 297.890625 71.984375 292.765625 73.609375 C 287.648438 75.234375 282.46875 76.046875 277.21875 76.046875 C 267.226562 76.046875 258.363281 73.921875 250.625 69.671875 C 242.882812 65.429688 235.828125 60.25 229.453125 54.125 C 223.085938 48.007812 217.15625 42.207031 211.65625 36.71875 C 211.65625 36.71875 209.90625 35.03125 206.40625 31.65625 C 202.914062 28.28125 198.796875 24.46875 194.046875 20.21875 C 189.304688 15.976562 184.75 12.234375 180.375 8.984375 C 176.007812 5.742188 172.828125 4.125 170.828125 4.125 Z M 170.828125 4.125 "></path></g></g></g></svg></svg></g></g></svg>