<?xml version="1.0" encoding="UTF-8" standalone="no"?>
<!DOCTYPE svg PUBLIC "-//W3C//DTD SVG 1.1//EN" "http://www.w3.org/Graphics/SVG/1.1/DTD/svg11.dtd">
<svg width="100%" height="100%" viewBox="0 0 500 500" version="1.1" xmlns="http://www.w3.org/2000/svg" xmlns:xlink="http://www.w3.org/1999/xlink" xml:space="preserve" xmlns:serif="http://www.serif.com/" style="fill-rule:evenodd;clip-rule:evenodd;stroke-linejoin:round;stroke-miterlimit:2;">
    <g id="Layer_1-2">
        <circle cx="250" cy="250" r="250" style="fill:rgb(234,188,108);"/>
        <g>
            <path d="M90.27,366.33C86.73,363.12 87.52,372.91 83.69,368.76L93.65,302.94C88.87,291.25 93.99,283.05 95.32,273.51C97.3,259.32 93.64,240.76 95.3,226.03C94.46,222.54 54.73,212.11 48.57,208.24C42.41,204.37 43.56,201.63 49.62,198.26L248.88,128.33C310.96,151.44 375,170.06 436.87,193.65C442.35,195.74 461.09,200.15 454.12,207.66L250.8,279.3L105.93,228.29C103.52,229.76 103.66,231.45 103.4,233.89C100.93,256.99 108.73,279.55 104.26,301.31L114.87,368.58C113.77,372.5 94.49,372.14 91.87,370.44C90.44,369.51 90.6,366.62 90.28,366.33L90.27,366.33Z" style="fill:rgb(36,55,66);fill-rule:nonzero;"/>
            <path d="M126.52,245.48L129.92,243.66L249.21,287.47L370.04,243.66L373.44,245.48L373.44,317.82C373.44,321.71 359.65,331.25 355.87,333.15C313.62,354.4 189.8,352.66 146.3,334.23C141.96,332.39 126.51,324.04 126.51,319.46L126.51,245.48L126.52,245.48Z" style="fill:rgb(36,55,66);fill-rule:nonzero;"/>
        </g>
    </g>
</svg>
