<?xml version="1.0" encoding="UTF-8" standalone="no"?>
<!DOCTYPE svg PUBLIC "-//W3C//DTD SVG 1.1//EN" "http://www.w3.org/Graphics/SVG/1.1/DTD/svg11.dtd">
<svg width="100%" height="100%" viewBox="0 0 500 500" version="1.1" xmlns="http://www.w3.org/2000/svg" xmlns:xlink="http://www.w3.org/1999/xlink" xml:space="preserve" xmlns:serif="http://www.serif.com/" style="fill-rule:evenodd;clip-rule:evenodd;stroke-linejoin:round;stroke-miterlimit:2;">
    <g id="Layer_1-2">
        <circle cx="250" cy="250" r="250" style="fill:rgb(36,55,66);"/>
        <g>
            <path d="M327.89,143.75C324.38,143.75 324.38,152.2 327.89,152.2L399.12,152.2C399.56,152.2 401.07,150.97 401.94,150.79L401.94,145.16C401.01,144.94 399.78,143.86 399.12,143.75L327.89,143.75Z" style="fill:rgb(234,188,108);fill-rule:nonzero;"/>
            <path d="M400.33,122.02L326.08,122.02L324.94,127.3L326.68,129.26L400.33,129.26C402.73,129.26 402.73,122.02 400.33,122.02Z" style="fill:rgb(234,188,108);fill-rule:nonzero;"/>
            <path d="M250,0C111.93,0 0,111.93 0,250C0,357.49 67.84,449.12 163.03,484.45L133.52,322.41L301.94,322.41L269.14,499.28C398.27,489.51 500,381.64 500,250C500,111.93 388.07,0 250,0ZM212.28,112.65C259.3,104.63 267.78,172.58 226.19,179.68C179.2,187.7 170.74,119.74 212.28,112.65ZM136.53,228.85C138.11,189.87 178.68,189.57 208.95,191.44L218.64,206.51C222.36,203.57 224.14,197.24 227.06,193.83C230.94,189.32 245.44,190.35 251.81,190.84C269.23,192.17 288.33,198.8 295.28,216.19C295.83,217.56 298.31,224.62 298.31,225.23L298.31,275.33L269.33,275.33L269.33,234.29L259.67,234.29L259.67,275.33L173.95,275.33L173.95,234.29L165.5,234.29L165.5,275.33L136.52,275.33C136.98,259.89 135.89,244.29 136.52,228.85L136.53,228.85ZM328.5,315.16L106.35,315.16L106.35,281.36L328.5,281.36L328.5,315.16ZM384.08,180.61C379.21,181.78 372.59,181.57 368.29,182.93C364.04,184.26 353.15,192.63 347.05,195.49C343.87,196.98 321.17,206.21 320.06,205.31C326.96,197.66 335.29,189.62 334.62,178.35C271.97,153.56 297.74,94.76 356.9,90.66C387.41,88.54 432.76,104.45 428.73,141.96C426.48,162.88 402.47,176.21 384.1,180.62L384.08,180.61Z" style="fill:rgb(234,188,108);fill-rule:nonzero;"/>
        </g>
    </g>
</svg>
