<?xml version="1.0" encoding="UTF-8" standalone="no"?>
<!DOCTYPE svg PUBLIC "-//W3C//DTD SVG 1.1//EN" "http://www.w3.org/Graphics/SVG/1.1/DTD/svg11.dtd">
<svg width="100%" height="100%" viewBox="0 0 1812 861" version="1.1" xmlns="http://www.w3.org/2000/svg" xmlns:xlink="http://www.w3.org/1999/xlink" xml:space="preserve" xmlns:serif="http://www.serif.com/" style="fill-rule:evenodd;clip-rule:evenodd;stroke-linejoin:round;stroke-miterlimit:2;">
    <g transform="matrix(1.00466,0,0,1.00466,0,0)">
        <g id="Artboard1" transform="matrix(1,0,0,1,-58.6676,-87.4936)">
            <rect x="58.668" y="87.494" width="1802.91" height="856.603" style="fill:none;"/>
            <clipPath id="_clip1">
                <rect x="58.668" y="87.494" width="1802.91" height="856.603"/>
            </clipPath>
            <g clip-path="url(#_clip1)">
                <g id="f169f53ad0" transform="matrix(1.33333,0,0,1.33333,0.667647,0.493614)">
                    <g>
                        <g transform="matrix(1,0,0,1,1.46558,-8.31339)">
                            <path d="M390.113,244.535L357.23,244.535L345.625,73.934L401.719,73.934L390.113,244.535Z" style="fill:rgb(224,154,37);"/>
                        </g>
                        <g transform="matrix(1,0,0,1,1.46558,-8.31339)">
                            <path d="M218.539,345.309L208.375,376.578L42.535,334.902L59.871,281.551L218.539,345.309Z" style="fill:rgb(224,154,37);"/>
                        </g>
                        <g transform="matrix(1,0,0,1,1.46558,-8.31339)">
                            <path d="M208.375,449.422L218.539,480.688L59.871,544.449L42.535,491.102L208.375,449.422Z" style="fill:rgb(224,154,37);"/>
                        </g>
                        <g transform="matrix(1,0,0,1,1.46558,-8.31339)">
                            <path d="M261.363,539.621L287.965,558.953L197.074,703.789L151.684,670.828L261.363,539.621Z" style="fill:rgb(224,154,37);"/>
                        </g>
                        <g transform="matrix(1,0,0,1,1.46558,-8.31339)">
                            <path d="M485.996,286.375L459.395,267.047L550.285,122.199L595.66,155.168L485.996,286.375Z" style="fill:rgb(224,154,37);"/>
                        </g>
                        <g transform="matrix(1,0,0,1,1.46558,-8.31339)">
                            <path d="M390.113,244.535L357.23,244.535L345.625,73.934L401.719,73.934L390.113,244.535Z" style="fill:rgb(224,154,37);fill-rule:nonzero;"/>
                        </g>
                        <g transform="matrix(1,0,0,1,1.46558,-8.31339)">
                            <path d="M337.25,247.703L305.977,257.871L261.891,159.723L315.242,142.387L337.25,247.703Z" style="fill:rgb(224,154,37);fill-rule:nonzero;"/>
                        </g>
                        <g transform="matrix(1,0,0,1,1.46558,-8.31339)">
                            <path d="M247.047,300.688L227.727,327.285L134.371,273.805L167.34,228.422L247.047,300.688Z" style="fill:rgb(224,154,37);fill-rule:nonzero;"/>
                        </g>
                        <g transform="matrix(1,0,0,1,1.46558,-8.31339)">
                            <path d="M205.215,396.566L205.215,429.445L98.258,441.047L98.258,384.957L205.215,396.566Z" style="fill:rgb(224,154,37);fill-rule:nonzero;"/>
                        </g>
                        <g transform="matrix(1,0,0,1,1.46558,-8.31339)">
                            <path d="M227.727,498.719L247.055,525.316L167.34,597.582L134.371,552.199L227.727,498.719Z" style="fill:rgb(224,154,37);fill-rule:nonzero;"/>
                        </g>
                        <g transform="matrix(1,0,0,1,1.46558,-8.31339)">
                            <path d="M441.375,257.871L410.094,247.703L432.113,142.387L485.461,159.723L441.375,257.871Z" style="fill:rgb(224,154,37);fill-rule:nonzero;"/>
                        </g>
                        <g transform="matrix(1,0,0,1,1.46558,-8.31339)">
                            <path d="M287.957,267.047L261.355,286.375L151.684,155.184L197.066,122.199L287.957,267.047Z" style="fill:rgb(224,154,37);fill-rule:nonzero;"/>
                        </g>
                        <g transform="matrix(1,0,0,1,1.46558,-8.31339)">
                            <path d="M218.539,345.309L208.375,376.578L42.535,334.902L59.871,281.551L218.539,345.309Z" style="fill:rgb(224,154,37);fill-rule:nonzero;"/>
                        </g>
                        <g transform="matrix(1,0,0,1,1.46558,-8.31339)">
                            <path d="M208.375,449.422L218.539,480.688L59.871,544.449L42.535,491.102L208.375,449.422Z" style="fill:rgb(224,154,37);fill-rule:nonzero;"/>
                        </g>
                        <g transform="matrix(1,0,0,1,1.46558,-8.31339)">
                            <path d="M261.363,539.621L287.965,558.953L197.074,703.789L151.684,670.828L261.363,539.621Z" style="fill:rgb(224,154,37);fill-rule:nonzero;"/>
                        </g>
                        <g transform="matrix(1,0,0,1,1.46558,-8.31339)">
                            <path d="M485.996,286.375L459.395,267.047L550.285,122.199L595.66,155.168L485.996,286.375Z" style="fill:rgb(224,154,37);fill-rule:nonzero;"/>
                        </g>
                        <g transform="matrix(1,0,0,1,301.777,482.919)">
                            <g>
                                <path d="M23.172,-176.578C31.055,-176.578 38.563,-176.961 45.688,-177.734C52.813,-178.504 60.234,-178.891 67.953,-178.891C71.555,-178.891 75.801,-178.676 80.688,-178.25C85.582,-177.82 90.688,-176.879 96,-175.422C101.32,-173.961 106.219,-171.688 110.688,-168.594C114.457,-165.852 118.016,-161.992 121.359,-157.016C124.711,-152.035 126.391,-146.031 126.391,-139C126.391,-130.938 124.031,-123.383 119.313,-116.344C114.594,-109.313 108.801,-103.648 101.938,-99.359C101.594,-99.016 101.422,-98.758 101.422,-98.594C101.422,-98.414 101.676,-98.156 102.188,-97.813C108.883,-96.613 114.938,-93.91 120.344,-89.703C125.75,-85.504 130.035,-80.27 133.203,-74C136.379,-67.738 137.969,-60.75 137.969,-53.031C137.969,-44.789 136.297,-37.41 132.953,-30.891C129.609,-24.367 125.445,-18.875 120.469,-14.406C115.488,-9.945 110.426,-6.602 105.281,-4.375C103.906,-3.688 100.727,-2.523 95.75,-0.891C90.781,0.734 83.66,1.547 74.391,1.547C68.555,1.547 62.723,1.285 56.891,0.766C51.055,0.254 45.133,0 39.125,0C34.664,0 30.117,0.082 25.484,0.25C20.848,0.426 15.613,0.516 9.781,0.516L9.266,0.516C8.066,0.516 6.953,0.219 5.922,-0.375C4.891,-0.977 4.375,-2.738 4.375,-5.656C4.375,-8.063 5.398,-9.477 7.453,-9.906C9.516,-10.332 13.297,-10.891 18.797,-11.578C20.16,-11.922 21.398,-12.305 22.516,-12.734C23.641,-13.172 24.203,-14.504 24.203,-16.734L24.203,-157.531C24.203,-161.133 23.082,-163.32 20.844,-164.094C18.613,-164.863 15.27,-165.422 10.813,-165.766C9.613,-165.766 8.539,-166.148 7.594,-166.922C6.645,-167.703 6.172,-169.461 6.172,-172.203C6.172,-175.297 7.719,-176.844 10.813,-176.844C11.32,-176.844 12.563,-176.797 14.531,-176.703C16.508,-176.617 19.391,-176.578 23.172,-176.578ZM103.484,-133.594C103.484,-136.688 102.922,-140.16 101.797,-144.016C100.68,-147.879 98.707,-151.613 95.875,-155.219C93.051,-158.82 89.191,-161.781 84.297,-164.094C79.41,-166.414 73.191,-167.578 65.641,-167.578C63.066,-167.578 59.758,-167.359 55.719,-166.922C51.688,-166.492 48.988,-165.766 47.625,-164.734C46.938,-164.223 46.547,-163.664 46.453,-163.063C46.367,-162.469 46.328,-161.91 46.328,-161.391L46.328,-105.797C46.328,-104.766 46.457,-103.945 46.719,-103.344C46.977,-102.75 47.707,-102.453 48.906,-102.453L63.844,-102.453C67.27,-102.453 71.254,-102.75 75.797,-103.344C80.348,-103.945 84.813,-105.406 89.188,-107.719C93.563,-110.039 97.125,-113.773 99.875,-118.922C102.281,-123.723 103.484,-128.613 103.484,-133.594ZM66.156,-10.547C74.738,-10.547 82.719,-12.086 90.094,-15.172C97.469,-18.266 103.473,-22.898 108.109,-29.078C112.742,-35.266 115.063,-42.816 115.063,-51.734C115.063,-56.879 114.07,-62.066 112.094,-67.297C110.125,-72.535 106.953,-77.211 102.578,-81.328C98.203,-85.453 92.238,-88.285 84.688,-89.828C81.25,-90.691 77.688,-91.164 74,-91.25C70.313,-91.332 66.664,-91.375 63.063,-91.375L49.938,-91.375C48.219,-91.375 47.188,-90.988 46.844,-90.219C46.5,-89.445 46.328,-88.547 46.328,-87.516L46.328,-21.109C46.328,-18.879 46.672,-16.906 47.359,-15.188C48.047,-13.469 50.281,-12.266 54.063,-11.578C55.945,-11.41 57.914,-11.195 59.969,-10.938C62.031,-10.676 64.094,-10.547 66.156,-10.547Z" style="fill:rgb(254,244,200);"/>
                            </g>
                        </g>
                        <g transform="matrix(1,0,0,1,446.896,482.919)">
                            <g>
                                <path d="M26.766,-159.078C26.766,-162.504 28.008,-165.375 30.5,-167.688C32.988,-170.008 35.863,-171.172 39.125,-171.172C42.563,-171.172 45.477,-170.008 47.875,-167.688C50.281,-165.375 51.484,-162.586 51.484,-159.328C51.484,-155.898 50.238,-152.984 47.75,-150.578C45.258,-148.18 42.301,-146.984 38.875,-146.984C35.613,-146.984 32.781,-148.141 30.375,-150.453C27.969,-152.766 26.766,-155.641 26.766,-159.078ZM24.203,-31.141C24.203,-46.078 24.242,-57.488 24.328,-65.375C24.41,-73.27 24.453,-78.422 24.453,-80.828C24.453,-82.203 24.148,-83.227 23.547,-83.906C22.953,-84.594 21.41,-85.453 18.922,-86.484C16.43,-87.516 12.441,-89.145 6.953,-91.375C6.266,-91.719 5.578,-92.102 4.891,-92.531C4.203,-92.969 3.859,-93.695 3.859,-94.719C3.859,-96.27 4.672,-97.383 6.297,-98.063C7.93,-98.75 9.438,-99.438 10.813,-100.125C19.738,-104.414 26.086,-107.504 29.859,-109.391C33.629,-111.285 36.031,-112.445 37.063,-112.875C38.094,-113.301 38.781,-113.516 39.125,-113.516L39.391,-113.516C40.242,-113.516 41.055,-113.211 41.828,-112.609C42.598,-112.016 42.984,-110.941 42.984,-109.391C42.984,-108.711 42.852,-105.711 42.594,-100.391C42.344,-95.066 42.086,-88.113 41.828,-79.531C41.566,-70.957 41.438,-61.438 41.438,-50.969L41.438,-42.469C41.438,-32 41.52,-24.488 41.688,-19.938C41.863,-15.395 42.379,-12.609 43.234,-11.578C44.098,-10.547 45.473,-9.863 47.359,-9.531C51.648,-8.844 54.656,-8.328 56.375,-7.984C58.094,-7.641 58.953,-6.352 58.953,-4.125C58.953,-3.094 58.781,-1.891 58.438,-0.516C58.094,0.859 57.234,1.547 55.859,1.547C55.516,1.547 53.066,1.285 48.516,0.766C43.973,0.254 38.523,0 32.172,0C25.828,0 20.379,0.254 15.828,0.766C11.285,1.285 8.844,1.547 8.5,1.547C5.926,1.547 4.641,0.086 4.641,-2.828C4.641,-5.742 5.281,-7.457 6.563,-7.969C7.852,-8.488 11.414,-9.094 17.25,-9.781C20.508,-10.289 22.484,-11.406 23.172,-13.125C23.859,-14.844 24.203,-16.816 24.203,-19.047L24.203,-31.141Z" style="fill:rgb(254,244,200);"/>
                            </g>
                        </g>
                        <g transform="matrix(1,0,0,1,509.421,482.919)">
                            <g>
                                <path d="M36.547,-101.672C36.547,-100.641 36.891,-100.125 37.578,-100.125C38.441,-100.125 40.203,-101.023 42.859,-102.828C45.516,-104.629 49.332,-106.391 54.313,-108.109C59.289,-109.828 65.383,-110.688 72.594,-110.688C82.719,-110.688 91.508,-108.328 98.969,-103.609C106.438,-98.891 112.27,-92.238 116.469,-83.656C120.676,-75.07 122.781,-65.117 122.781,-53.797C122.781,-48.473 121.922,-42.297 120.203,-35.266C118.492,-28.234 115.191,-21.539 110.297,-15.188C105.41,-8.832 98.16,-3.852 88.547,-0.25C83.223,1.801 77.816,3.172 72.328,3.859C66.836,4.547 62.633,4.891 59.719,4.891C55.602,4.891 52.172,4.457 49.422,3.594C46.672,2.738 44.18,1.926 41.953,1.156C39.723,0.383 37.32,0 34.75,0C32.176,0 30.203,0.426 28.828,1.281C27.453,2.145 26.289,3.047 25.344,3.984C24.406,4.93 23.25,5.406 21.875,5.406C20.164,5.406 19.051,4.547 18.531,2.828C18.02,1.109 17.766,-0.602 17.766,-2.313C17.766,-8.32 17.805,-16.391 17.891,-26.516C17.973,-36.641 18.055,-47.664 18.141,-59.594C18.234,-71.52 18.281,-83.488 18.281,-95.5C18.281,-107.508 18.32,-118.578 18.406,-128.703C18.488,-138.828 18.531,-146.895 18.531,-152.906C18.531,-154.445 18.316,-155.602 17.891,-156.375C17.461,-157.145 16.645,-157.875 15.438,-158.563C9.781,-161.988 5.961,-164.301 3.984,-165.5C2.016,-166.707 1.031,-167.828 1.031,-168.859C1.031,-169.891 1.414,-170.66 2.188,-171.172C2.957,-171.691 3.688,-172.035 4.375,-172.203C13.125,-175.641 19.473,-178.172 23.422,-179.797C27.367,-181.43 29.984,-182.461 31.266,-182.891C32.555,-183.316 33.375,-183.531 33.719,-183.531C34.57,-183.352 35.383,-182.961 36.156,-182.359C36.938,-181.766 37.328,-180.438 37.328,-178.375C37.328,-175.289 37.281,-170.957 37.188,-165.375C37.102,-159.801 37.063,-153.711 37.063,-147.109C37.063,-140.504 37.02,-134.023 36.938,-127.672C36.852,-121.328 36.766,-115.789 36.672,-111.063C36.586,-106.344 36.547,-103.211 36.547,-101.672ZM106.563,-49.422C106.563,-59.035 104.5,-67.398 100.375,-74.516C96.258,-81.641 90.941,-87.176 84.422,-91.125C77.898,-95.07 70.953,-97.047 63.578,-97.047C59.629,-97.047 55.508,-96.359 51.219,-94.984C46.926,-93.609 43.281,-91.977 40.281,-90.094C37.281,-88.207 35.781,-86.316 35.781,-84.422L35.781,-18.531C35.781,-18.363 35.734,-18.109 35.641,-17.766C35.555,-17.422 35.516,-17.078 35.516,-16.734C35.516,-15.191 35.727,-13.945 36.156,-13C36.594,-12.051 37.582,-11.234 39.125,-10.547C42.895,-9.004 46.754,-7.801 50.703,-6.938C54.648,-6.082 58.688,-5.656 62.813,-5.656C76.02,-5.656 86.613,-9.688 94.594,-17.75C102.57,-25.82 106.563,-36.379 106.563,-49.422Z" style="fill:rgb(254,244,200);"/>
                            </g>
                        </g>
                        <g transform="matrix(1,0,0,1,634.471,482.919)">
                            <g>
                                <path d="M58.688,-3.609C58.688,-0.172 57.656,1.547 55.594,1.547C55.25,1.547 52.758,1.285 48.125,0.766C43.5,0.254 37.926,0 31.406,0C25.227,0 19.906,0.211 15.438,0.641C10.977,1.066 8.578,1.281 8.234,1.281C6.516,1.281 5.484,0.723 5.141,-0.391C4.805,-1.504 4.641,-2.488 4.641,-3.344L4.641,-4.125C4.641,-6.52 5.32,-7.93 6.688,-8.359C8.063,-8.797 10.895,-9.27 15.188,-9.781C18.613,-10.125 20.672,-11.195 21.359,-13C22.047,-14.801 22.391,-16.988 22.391,-19.563L22.391,-150.578C22.391,-152.473 21.957,-153.719 21.094,-154.313C20.238,-154.914 18.695,-155.816 16.469,-157.016C11.32,-160.109 7.758,-162.211 5.781,-163.328C3.813,-164.441 2.828,-165.688 2.828,-167.063L2.828,-167.313C2.828,-167.832 3.039,-168.305 3.469,-168.734C3.906,-169.16 5.066,-169.891 6.953,-170.922C8.836,-171.953 11.969,-173.535 16.344,-175.672C20.719,-177.816 26.77,-180.953 34.5,-185.078C35.52,-185.766 36.547,-186.109 37.578,-186.109C39.117,-186.109 40.102,-185.594 40.531,-184.563C40.969,-183.531 41.188,-182.414 41.188,-181.219L41.188,-18.281C41.188,-14.156 42.086,-11.75 43.891,-11.063C45.691,-10.375 49.164,-9.602 54.313,-8.75C57.227,-8.238 58.688,-6.523 58.688,-3.609Z" style="fill:rgb(254,244,200);"/>
                            </g>
                        </g>
                        <g transform="matrix(1,0,0,1,695.966,482.919)">
                            <g>
                                <path d="M26.766,-159.078C26.766,-162.504 28.008,-165.375 30.5,-167.688C32.988,-170.008 35.863,-171.172 39.125,-171.172C42.563,-171.172 45.477,-170.008 47.875,-167.688C50.281,-165.375 51.484,-162.586 51.484,-159.328C51.484,-155.898 50.238,-152.984 47.75,-150.578C45.258,-148.18 42.301,-146.984 38.875,-146.984C35.613,-146.984 32.781,-148.141 30.375,-150.453C27.969,-152.766 26.766,-155.641 26.766,-159.078ZM24.203,-31.141C24.203,-46.078 24.242,-57.488 24.328,-65.375C24.41,-73.27 24.453,-78.422 24.453,-80.828C24.453,-82.203 24.148,-83.227 23.547,-83.906C22.953,-84.594 21.41,-85.453 18.922,-86.484C16.43,-87.516 12.441,-89.145 6.953,-91.375C6.266,-91.719 5.578,-92.102 4.891,-92.531C4.203,-92.969 3.859,-93.695 3.859,-94.719C3.859,-96.27 4.672,-97.383 6.297,-98.063C7.93,-98.75 9.438,-99.438 10.813,-100.125C19.738,-104.414 26.086,-107.504 29.859,-109.391C33.629,-111.285 36.031,-112.445 37.063,-112.875C38.094,-113.301 38.781,-113.516 39.125,-113.516L39.391,-113.516C40.242,-113.516 41.055,-113.211 41.828,-112.609C42.598,-112.016 42.984,-110.941 42.984,-109.391C42.984,-108.711 42.852,-105.711 42.594,-100.391C42.344,-95.066 42.086,-88.113 41.828,-79.531C41.566,-70.957 41.438,-61.438 41.438,-50.969L41.438,-42.469C41.438,-32 41.52,-24.488 41.688,-19.938C41.863,-15.395 42.379,-12.609 43.234,-11.578C44.098,-10.547 45.473,-9.863 47.359,-9.531C51.648,-8.844 54.656,-8.328 56.375,-7.984C58.094,-7.641 58.953,-6.352 58.953,-4.125C58.953,-3.094 58.781,-1.891 58.438,-0.516C58.094,0.859 57.234,1.547 55.859,1.547C55.516,1.547 53.066,1.285 48.516,0.766C43.973,0.254 38.523,0 32.172,0C25.828,0 20.379,0.254 15.828,0.766C11.285,1.285 8.844,1.547 8.5,1.547C5.926,1.547 4.641,0.086 4.641,-2.828C4.641,-5.742 5.281,-7.457 6.563,-7.969C7.852,-8.488 11.414,-9.094 17.25,-9.781C20.508,-10.289 22.484,-11.406 23.172,-13.125C23.859,-14.844 24.203,-16.816 24.203,-19.047L24.203,-31.141Z" style="fill:rgb(254,244,200);"/>
                            </g>
                        </g>
                        <g transform="matrix(1,0,0,1,758.491,482.919)">
                            <g>
                                <path d="M53.797,4.641C44.016,4.641 35.391,2.238 27.922,-2.563C20.461,-7.375 14.672,-13.984 10.547,-22.391C6.43,-30.797 4.375,-40.234 4.375,-50.703C4.375,-62.379 6.691,-72.676 11.328,-81.594C15.961,-90.52 22.395,-97.516 30.625,-102.578C38.863,-107.641 48.473,-110.172 59.453,-110.172C68.723,-110.172 76.488,-108.238 82.75,-104.375C89.02,-100.52 92.156,-96.102 92.156,-91.125C92.156,-88.207 91.125,-85.848 89.063,-84.047C87,-82.242 84.598,-81.344 81.859,-81.344C78.941,-81.344 76.363,-82.113 74.125,-83.656C71.895,-85.195 69.664,-87 67.438,-89.063C65.207,-91.125 62.805,-92.926 60.234,-94.469C57.66,-96.008 54.484,-96.781 50.703,-96.781C45.555,-96.781 40.754,-94.977 36.297,-91.375C31.836,-87.77 28.234,-82.961 25.484,-76.953C22.734,-70.953 21.359,-64.348 21.359,-57.141C21.359,-49.242 23.117,-41.82 26.641,-34.875C30.16,-27.926 34.961,-22.348 41.047,-18.141C47.141,-13.941 54.133,-11.844 62.031,-11.844C68.727,-11.844 74.004,-13 77.859,-15.313C81.723,-17.633 84.813,-19.953 87.125,-22.266C89.445,-24.578 91.551,-25.734 93.438,-25.734C94.633,-25.734 95.66,-25.348 96.516,-24.578C97.379,-23.805 97.813,-22.734 97.813,-21.359C97.813,-19.992 97.297,-18.625 96.266,-17.25C92.148,-11.582 86.445,-6.516 79.156,-2.047C71.863,2.41 63.41,4.641 53.797,4.641Z" style="fill:rgb(254,244,200);"/>
                            </g>
                        </g>
                        <g transform="matrix(1,0,0,1,856.523,482.919)">
                            <g>
                                <path d="M7.469,-88.813C7.469,-91.895 9.27,-95.238 12.875,-98.844C16.477,-102.445 21.32,-105.492 27.406,-107.984C33.5,-110.473 40.066,-111.719 47.109,-111.719C49.504,-111.719 52.676,-111.414 56.625,-110.813C60.57,-110.207 64.52,-108.961 68.469,-107.078C72.414,-105.191 75.891,-102.359 78.891,-98.578C81.898,-94.805 83.742,-89.75 84.422,-83.406C84.598,-81.852 84.727,-80.305 84.813,-78.766C84.895,-77.223 84.938,-75.68 84.938,-74.141L84.938,-23.422C84.938,-18.441 86.094,-15.305 88.406,-14.016C90.727,-12.734 92.492,-12.094 93.703,-12.094C96.441,-12.094 98.367,-12.82 99.484,-14.281C100.598,-15.738 101.5,-17.156 102.188,-18.531C102.875,-19.906 103.816,-20.594 105.016,-20.594C106.566,-20.594 107.344,-19.477 107.344,-17.25C107.344,-15.363 106.613,-12.789 105.156,-9.531C103.695,-6.27 101.504,-3.348 98.578,-0.766C95.66,1.805 91.973,3.094 87.516,3.094C83.742,3.094 80.523,2.234 77.859,0.516C75.203,-1.203 73.145,-2.961 71.688,-4.766C70.227,-6.566 69.414,-7.469 69.25,-7.469C69.07,-7.469 68.984,-7.508 68.984,-7.594C68.984,-7.676 68.898,-7.719 68.734,-7.719C68.047,-7.719 67.531,-7.332 67.188,-6.563C66.844,-5.789 65.039,-4.289 61.781,-2.063C58.863,-0.176 55.344,1.492 51.219,2.953C47.102,4.41 42.645,5.141 37.844,5.141C28.914,5.141 21.789,2.313 16.469,-3.344C11.156,-9.008 8.5,-15.789 8.5,-23.688L8.5,-23.938C8.5,-28.914 9.523,-33.379 11.578,-37.328C13.641,-41.273 16.219,-44.445 19.313,-46.844C22.738,-49.594 26.984,-51.781 32.047,-53.406C37.109,-55.039 42.082,-56.242 46.969,-57.016C51.863,-57.785 55.984,-58.344 59.328,-58.688C62.672,-59.031 64.43,-59.203 64.609,-59.203C65.984,-59.547 66.672,-60.75 66.672,-62.813L66.672,-72.078C66.672,-76.191 66.281,-79.922 65.5,-83.266C64.727,-86.617 63.055,-89.754 60.484,-92.672C58.941,-94.379 56.926,-95.961 54.438,-97.422C51.945,-98.879 48.988,-99.609 45.563,-99.609C40.758,-99.609 36.727,-98.234 33.469,-95.484C30.207,-92.742 27.758,-89.957 26.125,-87.125C24.5,-84.301 23.598,-82.719 23.422,-82.375C23.078,-81.852 22.473,-81.25 21.609,-80.563C20.754,-79.875 19.473,-79.531 17.766,-79.531C15.359,-79.531 13.039,-80.344 10.813,-81.969C8.582,-83.602 7.469,-85.883 7.469,-88.813ZM44.016,-9.016C48.305,-9.016 51.953,-9.785 54.953,-11.328C57.953,-12.867 60.352,-14.5 62.156,-16.219C63.957,-17.938 65.031,-19.051 65.375,-19.563C66.406,-20.938 66.922,-22.91 66.922,-25.484L66.922,-42.219C66.922,-45.301 66.789,-47.313 66.531,-48.25C66.281,-49.195 65.551,-49.672 64.344,-49.672C62.801,-49.672 60.141,-49.457 56.359,-49.031C52.586,-48.602 48.598,-47.742 44.391,-46.453C40.191,-45.172 36.633,-43.156 33.719,-40.406C32,-39.039 30.539,-37.195 29.344,-34.875C28.145,-32.563 27.547,-29.773 27.547,-26.516C27.547,-24.453 27.93,-22.047 28.703,-19.297C29.473,-16.555 30.891,-14.242 32.953,-12.359C34.492,-10.984 36.289,-10.082 38.344,-9.656C40.406,-9.227 42.297,-9.016 44.016,-9.016Z" style="fill:rgb(254,244,200);"/>
                            </g>
                        </g>
                        <g transform="matrix(1,0,0,1,965.362,482.919)">
                            <g>
                                <path d="M58.688,-3.609C58.688,-0.172 57.656,1.547 55.594,1.547C55.25,1.547 52.758,1.285 48.125,0.766C43.5,0.254 37.926,0 31.406,0C25.227,0 19.906,0.211 15.438,0.641C10.977,1.066 8.578,1.281 8.234,1.281C6.516,1.281 5.484,0.723 5.141,-0.391C4.805,-1.504 4.641,-2.488 4.641,-3.344L4.641,-4.125C4.641,-6.52 5.32,-7.93 6.688,-8.359C8.063,-8.797 10.895,-9.27 15.188,-9.781C18.613,-10.125 20.672,-11.195 21.359,-13C22.047,-14.801 22.391,-16.988 22.391,-19.563L22.391,-150.578C22.391,-152.473 21.957,-153.719 21.094,-154.313C20.238,-154.914 18.695,-155.816 16.469,-157.016C11.32,-160.109 7.758,-162.211 5.781,-163.328C3.813,-164.441 2.828,-165.688 2.828,-167.063L2.828,-167.313C2.828,-167.832 3.039,-168.305 3.469,-168.734C3.906,-169.16 5.066,-169.891 6.953,-170.922C8.836,-171.953 11.969,-173.535 16.344,-175.672C20.719,-177.816 26.77,-180.953 34.5,-185.078C35.52,-185.766 36.547,-186.109 37.578,-186.109C39.117,-186.109 40.102,-185.594 40.531,-184.563C40.969,-183.531 41.188,-182.414 41.188,-181.219L41.188,-18.281C41.188,-14.156 42.086,-11.75 43.891,-11.063C45.691,-10.375 49.164,-9.602 54.313,-8.75C57.227,-8.238 58.688,-6.523 58.688,-3.609Z" style="fill:rgb(254,244,200);"/>
                            </g>
                        </g>
                        <g transform="matrix(1,0,0,1,1034.07,482.919)">
                            <g>
                                <path d="M112.234,-132.047C115.66,-132.047 117.719,-131.145 118.406,-129.344C119.094,-127.539 119.438,-125.953 119.438,-124.578L119.438,-77.219C119.438,-75.844 119.094,-74.254 118.406,-72.453C117.719,-70.648 115.66,-69.75 112.234,-69.75C108.973,-69.75 107,-70.395 106.313,-71.688C105.625,-72.977 105.281,-74.223 105.281,-75.422L105.281,-89.313C105.281,-91.895 104.633,-93.484 103.344,-94.078C102.063,-94.68 100.477,-94.984 98.594,-94.984L63.063,-94.984C60.145,-94.984 57.313,-94.508 54.563,-93.563C51.82,-92.625 50.453,-89.664 50.453,-84.688L50.453,-25.734C50.453,-23.504 50.879,-21.445 51.734,-19.563C52.598,-17.676 54.914,-16.473 58.688,-15.953C62.633,-15.266 66.625,-14.789 70.656,-14.531C74.688,-14.281 78.676,-14.156 82.625,-14.156C84.688,-14.156 87.52,-14.238 91.125,-14.406C94.727,-14.582 98.457,-14.883 102.313,-15.313C106.176,-15.738 109.738,-16.297 113,-16.984C116.258,-17.672 118.488,-18.531 119.688,-19.563C120.895,-20.414 122.27,-22.172 123.813,-24.828C125.352,-27.492 126.984,-30.457 128.703,-33.719C130.422,-36.977 132.051,-39.852 133.594,-42.344C135.133,-44.832 136.422,-46.422 137.453,-47.109C138.484,-47.617 139.344,-47.875 140.031,-47.875C140.883,-47.875 141.867,-47.441 142.984,-46.578C144.098,-45.723 144.656,-44.18 144.656,-41.953L144.656,-41.703C144.656,-41.359 144.613,-40.844 144.531,-40.156C144.445,-39.469 144.145,-38.008 143.625,-35.781C143.113,-33.551 142.301,-30.031 141.188,-25.219C140.07,-20.414 138.57,-13.723 136.688,-5.141C136.344,-3.254 135.656,-1.926 134.625,-1.156C133.594,-0.383 131.703,0 128.953,0L40.406,0C30.801,0 23.68,0.516 19.047,1.547C14.41,2.578 10.895,3.094 8.5,3.094C6.094,3.094 4.457,1.977 3.594,-0.25C2.738,-2.488 2.313,-3.953 2.313,-4.641C2.313,-6.18 2.781,-7.379 3.719,-8.234C4.664,-9.098 6.516,-10.039 9.266,-11.063C12.016,-12.094 16.219,-13.641 21.875,-15.703C24.281,-16.555 25.828,-17.754 26.516,-19.297C27.203,-20.848 27.547,-22.992 27.547,-25.734L27.547,-159.844C27.547,-161.738 27.113,-162.941 26.25,-163.453C25.395,-163.961 23.508,-164.477 20.594,-165C15.613,-165.852 11.535,-166.32 8.359,-166.406C5.191,-166.5 3.609,-168.43 3.609,-172.203C3.609,-174.773 4.117,-176.363 5.141,-176.969C6.172,-177.57 7.289,-177.875 8.5,-177.875L126.906,-177.875C128.789,-177.875 130.117,-177.531 130.891,-176.844C131.66,-176.156 132.219,-175.125 132.563,-173.75C133.414,-169.977 134.398,-165.473 135.516,-160.234C136.641,-155.004 137.672,-150.367 138.609,-146.328C139.555,-142.297 140.031,-140.023 140.031,-139.516C140.031,-138.828 139.688,-138.008 139,-137.063C138.313,-136.125 136.852,-135.656 134.625,-135.656C132.395,-135.656 130.805,-136.211 129.859,-137.328C128.922,-138.441 128.109,-139.426 127.422,-140.281C123.129,-148.008 120.035,-153.547 118.141,-156.891C116.254,-160.234 114.664,-162.289 113.375,-163.063C112.094,-163.832 110.082,-164.219 107.344,-164.219L58.953,-164.219C55.172,-164.219 52.895,-163.188 52.125,-161.125C51.352,-159.07 50.969,-156.844 50.969,-154.438L50.969,-115.578C50.969,-114.379 51.223,-113.133 51.734,-111.844C52.254,-110.551 53.711,-109.906 56.109,-109.906L95.5,-109.906C97.727,-109.906 99.914,-110.289 102.063,-111.063C104.207,-111.844 105.281,-114.289 105.281,-118.406L105.281,-126.391C105.281,-127.766 105.664,-129.051 106.438,-130.25C107.207,-131.445 109.141,-132.047 112.234,-132.047Z" style="fill:rgb(224,154,37);"/>
                            </g>
                        </g>
                        <g transform="matrix(1,0,0,1,1182.79,482.919)">
                            <g>
                                <path d="M104.766,-8.234C116.43,-8.234 127.066,-11.32 136.672,-17.5C146.285,-23.676 154.008,-32.516 159.844,-44.016C165.676,-55.516 168.594,-69.07 168.594,-84.688C168.594,-92.75 167.691,-101.242 165.891,-110.172C164.098,-119.098 161.141,-127.805 157.016,-136.297C152.898,-144.785 147.148,-152.125 139.766,-158.313C133.93,-163.281 127.281,-167.094 119.813,-169.75C112.352,-172.414 104.676,-173.75 96.781,-173.75C88.539,-173.75 80.473,-172.203 72.578,-169.109C64.691,-166.023 57.531,-161.438 51.094,-155.344C44.656,-149.25 39.547,-141.656 35.766,-132.563C31.992,-123.469 30.109,-112.914 30.109,-100.906C30.109,-89.75 31.82,-78.676 35.25,-67.688C38.688,-56.707 43.664,-46.754 50.188,-37.828C56.707,-28.91 64.555,-21.75 73.734,-16.344C82.922,-10.938 93.266,-8.234 104.766,-8.234ZM117.375,2.828C116.344,2.828 114.367,3.039 111.453,3.469C108.535,3.906 104.758,4.125 100.125,4.125C86.914,4.125 74.43,1.508 62.672,-3.719C50.922,-8.957 40.844,-15.785 32.438,-24.203C23.688,-33.117 16.945,-43.41 12.219,-55.078C7.5,-66.754 5.141,-78.77 5.141,-91.125C5.141,-103.82 7.672,-116.176 12.734,-128.188C17.797,-140.195 24.879,-150.664 33.984,-159.594C42.555,-168.176 52.633,-174.781 64.219,-179.406C75.801,-184.039 87.688,-186.359 99.875,-186.359C110.508,-186.359 121.488,-184.297 132.813,-180.172C144.145,-176.055 154.273,-169.539 163.203,-160.625C172.297,-151.695 179.285,-141.141 184.172,-128.953C189.066,-116.773 191.516,-104.336 191.516,-91.641C191.516,-79.797 189.492,-68.336 185.453,-57.266C181.422,-46.203 175.891,-36.078 168.859,-26.891C161.828,-17.711 153.758,-10.035 144.656,-3.859C144.488,-3.691 144.316,-3.52 144.141,-3.344C143.973,-3.176 143.891,-2.922 143.891,-2.578C143.891,-2.234 144.145,-1.891 144.656,-1.547C151.008,2.742 156.203,6.988 160.234,11.188C164.266,15.395 167.992,19.301 171.422,22.906C174.859,26.508 178.723,29.77 183.016,32.688C189.879,37.32 197.172,39.641 204.891,39.641C206.609,39.641 207.813,39.598 208.5,39.516C209.188,39.43 209.785,39.391 210.297,39.391C212.359,39.391 213.391,40.242 213.391,41.953C213.391,43.328 212.227,44.828 209.906,46.453C207.594,48.086 204.676,49.461 201.156,50.578C197.645,51.691 194.086,52.25 190.484,52.25C183.617,52.25 177.523,50.789 172.203,47.875C166.879,44.957 162.031,41.395 157.656,37.188C153.281,32.988 149.207,29 145.438,25.219C145.438,25.219 144.234,24.063 141.828,21.75C139.43,19.438 136.602,16.82 133.344,13.906C130.082,10.988 126.945,8.41 123.938,6.172C120.938,3.941 118.75,2.828 117.375,2.828Z" style="fill:rgb(224,154,37);"/>
                            </g>
                        </g>
                        <g transform="matrix(1,0,0,1,1.46558,-8.31339)">
                            <g transform="matrix(1,0,0,1,319.147,610.455)">
                                <path d="M6.969,0L6.969,-66.281L52.328,-66.281L52.328,-60L13.953,-60L13.953,-37.672L45.344,-37.672L45.344,-31.391L13.953,-31.391L13.953,-6.281L52.328,-6.281L52.328,0L6.969,0Z" style="fill:rgb(254,244,200);"/>
                            </g>
                            <g transform="matrix(1,0,0,1,374.958,610.455)">
                                <path d="M6.969,0L6.969,-48.828L13.953,-48.828L13.953,-40.813C18.598,-46.852 23.828,-49.875 29.641,-49.875C35.461,-49.875 39.535,-48.711 41.859,-46.391C44.18,-44.066 45.578,-42.094 46.047,-40.469C51.391,-46.738 56.969,-49.875 62.781,-49.875C68.594,-49.875 72.953,-48.535 75.859,-45.859C78.773,-43.191 80.234,-38.367 80.234,-31.391L80.234,0L73.25,0L73.25,-29.656C73.25,-34.301 72.375,-37.844 70.625,-40.281C68.883,-42.727 65.688,-43.953 61.031,-43.953C56.383,-43.953 51.738,-40.926 47.094,-34.875L47.094,0L40.109,0L40.109,-29.656C40.109,-34.301 39.234,-37.844 37.484,-40.281C35.742,-42.727 32.547,-43.953 27.891,-43.953C23.242,-43.953 18.598,-40.926 13.953,-34.875L13.953,0L6.969,0Z" style="fill:rgb(254,244,200);"/>
                            </g>
                            <g transform="matrix(1,0,0,1,462.163,610.455)">
                                <path d="M11.328,-5.219C7.266,-9.875 5.234,-16.27 5.234,-24.406C5.234,-32.551 7.266,-38.945 11.328,-43.594C15.398,-48.25 21.211,-50.578 28.766,-50.578C36.328,-50.578 42.145,-48.25 46.219,-43.594C50.289,-38.945 52.328,-32.551 52.328,-24.406C52.328,-16.27 50.289,-9.875 46.219,-5.219C42.145,-0.57 36.328,1.75 28.766,1.75C21.211,1.75 15.398,-0.57 11.328,-5.219ZM16.734,-39.234C13.953,-35.172 12.563,-30.234 12.563,-24.422C12.563,-18.609 13.953,-13.664 16.734,-9.594C19.523,-5.52 23.535,-3.484 28.766,-3.484C34.004,-3.484 38.02,-5.52 40.813,-9.594C43.602,-13.664 45,-18.609 45,-24.422C45,-30.234 43.602,-35.172 40.813,-39.234C38.02,-43.305 34.004,-45.344 28.766,-45.344C23.535,-45.344 19.523,-43.305 16.734,-39.234Z" style="fill:rgb(254,244,200);"/>
                            </g>
                            <g transform="matrix(1,0,0,1,519.718,610.455)">
                                <path d="M0,-42.563L0,-48.828L8.719,-48.828L8.719,-61.047L15.703,-61.047L15.703,-48.828L31.391,-48.828L31.391,-42.563L15.703,-42.563L15.703,-17.438C15.703,-8.832 18.609,-4.531 24.422,-4.531C27.211,-4.531 30.117,-5.344 33.141,-6.969L33.141,0C30.117,0.695 27.211,1.047 24.422,1.047C19.766,1.047 15.984,-0.285 13.078,-2.953C10.172,-5.629 8.719,-10.457 8.719,-17.438L8.719,-42.563L0,-42.563Z" style="fill:rgb(254,244,200);"/>
                            </g>
                            <g transform="matrix(1,0,0,1,554.6,610.455)">
                                <path d="M6.969,0L6.969,-48.828L13.953,-48.828L13.953,0L6.969,0ZM6.969,-59.297L6.969,-66.281L13.953,-66.281L13.953,-59.297L6.969,-59.297Z" style="fill:rgb(254,244,200);"/>
                            </g>
                            <g transform="matrix(1,0,0,1,575.529,610.455)">
                                <path d="M11.328,-5.219C7.266,-9.875 5.234,-16.27 5.234,-24.406C5.234,-32.551 7.266,-38.945 11.328,-43.594C15.398,-48.25 21.211,-50.578 28.766,-50.578C36.328,-50.578 42.145,-48.25 46.219,-43.594C50.289,-38.945 52.328,-32.551 52.328,-24.406C52.328,-16.27 50.289,-9.875 46.219,-5.219C42.145,-0.57 36.328,1.75 28.766,1.75C21.211,1.75 15.398,-0.57 11.328,-5.219ZM16.734,-39.234C13.953,-35.172 12.563,-30.234 12.563,-24.422C12.563,-18.609 13.953,-13.664 16.734,-9.594C19.523,-5.52 23.535,-3.484 28.766,-3.484C34.004,-3.484 38.02,-5.52 40.813,-9.594C43.602,-13.664 45,-18.609 45,-24.422C45,-30.234 43.602,-35.172 40.813,-39.234C38.02,-43.305 34.004,-45.344 28.766,-45.344C23.535,-45.344 19.523,-43.305 16.734,-39.234Z" style="fill:rgb(254,244,200);"/>
                            </g>
                            <g transform="matrix(1,0,0,1,633.084,610.455)">
                                <path d="M6.969,0L6.969,-48.828L13.953,-48.828L13.953,-40.813C18.598,-46.852 23.828,-49.875 29.641,-49.875C35.461,-49.875 39.828,-48.535 42.734,-45.859C45.641,-43.191 47.094,-38.367 47.094,-31.391L47.094,0L40.109,0L40.109,-29.656C40.109,-34.301 39.234,-37.844 37.484,-40.281C35.742,-42.727 32.547,-43.953 27.891,-43.953C23.242,-43.953 18.598,-40.926 13.953,-34.875L13.953,0L6.969,0Z" style="fill:rgb(254,244,200);"/>
                            </g>
                            <g transform="matrix(1,0,0,1,687.151,610.455)">
                                <path d="M9.594,-2.953C6.688,-5.629 5.234,-9.297 5.234,-13.953C5.234,-20.93 8.43,-25.582 14.828,-27.906C21.223,-30.227 29.07,-31.391 38.375,-31.391C38.375,-36.047 37.5,-39.422 35.75,-41.516C34.008,-43.609 30.234,-44.656 24.422,-44.656C18.609,-44.656 13.957,-43.723 10.469,-41.859L8.719,-47.094C13.832,-48.945 19.066,-49.875 24.422,-49.875C32.086,-49.875 37.488,-48.535 40.625,-45.859C43.77,-43.191 45.344,-38.367 45.344,-31.391L45.344,0L38.375,0L38.375,-5.234C33.719,-1.047 28.484,1.047 22.672,1.047C16.859,1.047 12.5,-0.285 9.594,-2.953ZM12.906,-14.656C12.906,-11.863 13.66,-9.422 15.172,-7.328C16.68,-5.234 19.766,-4.188 24.422,-4.188C27.91,-4.188 32.563,-6.281 38.375,-10.469L38.375,-25.813C29.07,-25.813 22.5,-24.992 18.656,-23.359C14.82,-21.734 12.906,-18.832 12.906,-14.656Z" style="fill:rgb(254,244,200);"/>
                            </g>
                            <g transform="matrix(1,0,0,1,739.474,610.455)">
                                <rect x="6.969" y="-69.766" width="6.984" height="69.766" style="fill:rgb(254,244,200);"/>
                            </g>
                            <g transform="matrix(1,0,0,1,784.821,610.455)">
                                <path d="M6.969,0L6.969,-5.234L15.703,-5.234L15.703,-61.047L6.969,-61.047L6.969,-66.281L31.391,-66.281L31.391,-61.047L22.672,-61.047L22.672,-5.234L31.391,-5.234L31.391,0L6.969,0Z" style="fill:rgb(254,244,200);"/>
                            </g>
                            <g transform="matrix(1,0,0,1,823.191,610.455)">
                                <path d="M6.969,0L6.969,-48.828L13.953,-48.828L13.953,-40.813C18.598,-46.852 23.828,-49.875 29.641,-49.875C35.461,-49.875 39.828,-48.535 42.734,-45.859C45.641,-43.191 47.094,-38.367 47.094,-31.391L47.094,0L40.109,0L40.109,-29.656C40.109,-34.301 39.234,-37.844 37.484,-40.281C35.742,-42.727 32.547,-43.953 27.891,-43.953C23.242,-43.953 18.598,-40.926 13.953,-34.875L13.953,0L6.969,0Z" style="fill:rgb(254,244,200);"/>
                            </g>
                            <g transform="matrix(1,0,0,1,877.258,610.455)">
                                <path d="M0,-42.563L0,-48.828L8.719,-48.828L8.719,-61.047L15.703,-61.047L15.703,-48.828L31.391,-48.828L31.391,-42.563L15.703,-42.563L15.703,-17.438C15.703,-8.832 18.609,-4.531 24.422,-4.531C27.211,-4.531 30.117,-5.344 33.141,-6.969L33.141,0C30.117,0.695 27.211,1.047 24.422,1.047C19.766,1.047 15.984,-0.285 13.078,-2.953C10.172,-5.629 8.719,-10.457 8.719,-17.438L8.719,-42.563L0,-42.563Z" style="fill:rgb(254,244,200);"/>
                            </g>
                            <g transform="matrix(1,0,0,1,912.14,610.455)">
                                <path d="M11.328,-5.219C7.266,-9.875 5.234,-16.273 5.234,-24.422C5.234,-32.555 7.266,-38.945 11.328,-43.594C15.398,-48.25 20.926,-50.578 27.906,-50.578C34.883,-50.578 40.406,-48.539 44.469,-44.469C48.539,-40.406 50.578,-33.141 50.578,-22.672L12.563,-22.672C12.563,-18.023 13.781,-13.781 16.219,-9.938C18.656,-6.102 23.133,-4.188 29.656,-4.188C35,-4.188 39.879,-6.281 44.297,-10.469L48.141,-6.969C42.785,-1.156 36.625,1.75 29.656,1.75C21.508,1.75 15.398,-0.57 11.328,-5.219ZM12.563,-28.25L43.25,-28.25C43.25,-32.664 42.023,-36.617 39.578,-40.109C37.141,-43.598 33.242,-45.344 27.891,-45.344C22.547,-45.344 18.656,-43.598 16.219,-40.109C13.781,-36.617 12.563,-32.664 12.563,-28.25Z" style="fill:rgb(254,244,200);"/>
                            </g>
                            <g transform="matrix(1,0,0,1,967.951,610.455)">
                                <rect x="6.969" y="-69.766" width="6.984" height="69.766" style="fill:rgb(254,244,200);"/>
                            </g>
                            <g transform="matrix(1,0,0,1,988.88,610.455)">
                                <rect x="6.969" y="-69.766" width="6.984" height="69.766" style="fill:rgb(254,244,200);"/>
                            </g>
                            <g transform="matrix(1,0,0,1,1009.81,610.455)">
                                <path d="M6.969,0L6.969,-48.828L13.953,-48.828L13.953,0L6.969,0ZM6.969,-59.297L6.969,-66.281L13.953,-66.281L13.953,-59.297L6.969,-59.297Z" style="fill:rgb(254,244,200);"/>
                            </g>
                            <g transform="matrix(1,0,0,1,1030.74,610.455)">
                                <path d="M12.203,-5.578C8.711,-6.504 6.969,-8.828 6.969,-12.547C6.969,-16.273 9.297,-18.719 13.953,-19.875C9.297,-23.133 6.969,-27.613 6.969,-33.313C6.969,-39.008 9.004,-43.313 13.078,-46.219C17.148,-49.125 21.801,-50.578 27.031,-50.578C32.258,-50.578 36.391,-49.992 39.422,-48.828C44.535,-47.672 49.414,-47.672 54.063,-48.828L54.063,-41.859L48.141,-41.859C49.766,-39.297 50.578,-35.75 50.578,-31.219C50.578,-26.688 48.539,-22.969 44.469,-20.063C40.406,-17.156 36.102,-15.703 31.563,-15.703L19.359,-15.703C15.754,-15.703 13.953,-14.77 13.953,-12.906C13.953,-11.039 16.273,-10.109 20.922,-10.109C34.879,-10.109 44.18,-8.891 48.828,-6.453C53.484,-4.016 55.813,-0.473 55.813,4.172C55.813,8.828 53.484,12.375 48.828,14.813C44.18,17.258 38.078,18.484 30.516,18.484C22.961,18.484 16.859,17.258 12.203,14.813C7.555,12.375 5.234,9.004 5.234,4.703C5.234,0.398 7.555,-3.023 12.203,-5.578ZM17.438,-5.234C14.414,-2.441 12.906,0.578 12.906,3.828C12.906,7.086 14.531,9.473 17.781,10.984C21.039,12.492 25.285,13.25 30.516,13.25C35.754,13.25 40,12.492 43.25,10.984C46.508,9.473 48.141,7.379 48.141,4.703C48.141,2.035 46.508,-0.285 43.25,-2.266C40,-4.242 31.395,-5.234 17.438,-5.234ZM18.313,-42.031C15.406,-39.594 13.953,-36.629 13.953,-33.141C13.953,-29.648 15.406,-26.68 18.313,-24.234C21.219,-21.797 24.703,-20.578 28.766,-20.578C32.836,-20.578 36.328,-21.797 39.234,-24.234C42.148,-26.68 43.609,-29.648 43.609,-33.141C43.609,-36.629 42.148,-39.594 39.234,-42.031C36.328,-44.469 32.836,-45.688 28.766,-45.688C24.703,-45.688 21.219,-44.469 18.313,-42.031Z" style="fill:rgb(254,244,200);"/>
                            </g>
                            <g transform="matrix(1,0,0,1,1086.55,610.455)">
                                <path d="M11.328,-5.219C7.266,-9.875 5.234,-16.273 5.234,-24.422C5.234,-32.555 7.266,-38.945 11.328,-43.594C15.398,-48.25 20.926,-50.578 27.906,-50.578C34.883,-50.578 40.406,-48.539 44.469,-44.469C48.539,-40.406 50.578,-33.141 50.578,-22.672L12.563,-22.672C12.563,-18.023 13.781,-13.781 16.219,-9.938C18.656,-6.102 23.133,-4.188 29.656,-4.188C35,-4.188 39.879,-6.281 44.297,-10.469L48.141,-6.969C42.785,-1.156 36.625,1.75 29.656,1.75C21.508,1.75 15.398,-0.57 11.328,-5.219ZM12.563,-28.25L43.25,-28.25C43.25,-32.664 42.023,-36.617 39.578,-40.109C37.141,-43.598 33.242,-45.344 27.891,-45.344C22.547,-45.344 18.656,-43.598 16.219,-40.109C13.781,-36.617 12.563,-32.664 12.563,-28.25Z" style="fill:rgb(254,244,200);"/>
                            </g>
                            <g transform="matrix(1,0,0,1,1142.36,610.455)">
                                <path d="M6.969,0L6.969,-48.828L13.953,-48.828L13.953,-40.813C18.598,-46.852 23.828,-49.875 29.641,-49.875C35.461,-49.875 39.828,-48.535 42.734,-45.859C45.641,-43.191 47.094,-38.367 47.094,-31.391L47.094,0L40.109,0L40.109,-29.656C40.109,-34.301 39.234,-37.844 37.484,-40.281C35.742,-42.727 32.547,-43.953 27.891,-43.953C23.242,-43.953 18.598,-40.926 13.953,-34.875L13.953,0L6.969,0Z" style="fill:rgb(254,244,200);"/>
                            </g>
                            <g transform="matrix(1,0,0,1,1196.43,610.455)">
                                <path d="M12.203,-5.219C7.555,-9.875 5.234,-16.27 5.234,-24.406C5.234,-32.551 7.555,-38.945 12.203,-43.594C16.859,-48.25 22.672,-50.578 29.641,-50.578C36.617,-50.578 42.438,-48.832 47.094,-45.344L47.094,-38.375C41.281,-43.02 35.754,-45.344 30.516,-45.344C25.285,-45.344 20.984,-43.305 17.609,-39.234C14.242,-35.172 12.563,-30.234 12.563,-24.422C12.563,-18.609 14.242,-13.664 17.609,-9.594C20.984,-5.52 25.285,-3.484 30.516,-3.484C35.754,-3.484 41.281,-5.813 47.094,-10.469L47.094,-3.484C42.438,0.004 36.617,1.75 29.641,1.75C22.672,1.75 16.859,-0.57 12.203,-5.219Z" style="fill:rgb(254,244,200);"/>
                            </g>
                            <g transform="matrix(1,0,0,1,1247.01,610.455)">
                                <path d="M11.328,-5.219C7.266,-9.875 5.234,-16.273 5.234,-24.422C5.234,-32.555 7.266,-38.945 11.328,-43.594C15.398,-48.25 20.926,-50.578 27.906,-50.578C34.883,-50.578 40.406,-48.539 44.469,-44.469C48.539,-40.406 50.578,-33.141 50.578,-22.672L12.563,-22.672C12.563,-18.023 13.781,-13.781 16.219,-9.938C18.656,-6.102 23.133,-4.188 29.656,-4.188C35,-4.188 39.879,-6.281 44.297,-10.469L48.141,-6.969C42.785,-1.156 36.625,1.75 29.656,1.75C21.508,1.75 15.398,-0.57 11.328,-5.219ZM12.563,-28.25L43.25,-28.25C43.25,-32.664 42.023,-36.617 39.578,-40.109C37.141,-43.598 33.242,-45.344 27.891,-45.344C22.547,-45.344 18.656,-43.598 16.219,-40.109C13.781,-36.617 12.563,-32.664 12.563,-28.25Z" style="fill:rgb(254,244,200);"/>
                            </g>
                        </g>
                        <g transform="matrix(1,0,0,1,1.46558,-8.31339)">
                            <g transform="matrix(1,0,0,1,319.147,714.636)">
                                <path d="M6.969,0L6.969,-66.281L52.328,-66.281L52.328,-60L13.953,-60L13.953,-37.672L45.344,-37.672L45.344,-31.391L13.953,-31.391L13.953,0L6.969,0Z" style="fill:rgb(254,244,200);"/>
                            </g>
                            <g transform="matrix(1,0,0,1,371.47,714.636)">
                                <path d="M11.328,-5.219C7.266,-9.875 5.234,-16.27 5.234,-24.406C5.234,-32.551 7.266,-38.945 11.328,-43.594C15.398,-48.25 21.211,-50.578 28.766,-50.578C36.328,-50.578 42.145,-48.25 46.219,-43.594C50.289,-38.945 52.328,-32.551 52.328,-24.406C52.328,-16.27 50.289,-9.875 46.219,-5.219C42.145,-0.57 36.328,1.75 28.766,1.75C21.211,1.75 15.398,-0.57 11.328,-5.219ZM16.734,-39.234C13.953,-35.172 12.563,-30.234 12.563,-24.422C12.563,-18.609 13.953,-13.664 16.734,-9.594C19.523,-5.52 23.535,-3.484 28.766,-3.484C34.004,-3.484 38.02,-5.52 40.813,-9.594C43.602,-13.664 45,-18.609 45,-24.422C45,-30.234 43.602,-35.172 40.813,-39.234C38.02,-43.305 34.004,-45.344 28.766,-45.344C23.535,-45.344 19.523,-43.305 16.734,-39.234Z" style="fill:rgb(254,244,200);"/>
                            </g>
                            <g transform="matrix(1,0,0,1,429.025,714.636)">
                                <path d="M6.969,0L6.969,-48.828L13.953,-48.828L13.953,-38.375C18.598,-46.039 25.57,-49.875 34.875,-49.875L34.875,-42.906C25.57,-42.906 18.598,-39.066 13.953,-31.391L13.953,0L6.969,0Z" style="fill:rgb(254,244,200);"/>
                            </g>
                            <g transform="matrix(1,0,0,1,488.325,714.636)">
                                <path d="M13.953,-6.969C8.141,-12.789 5.234,-21.516 5.234,-33.141C5.234,-44.766 8.141,-53.484 13.953,-59.297C19.766,-65.109 27.906,-68.016 38.375,-68.016C46.508,-68.016 53.484,-65.109 59.297,-59.297L59.297,-52.328C51.16,-59.297 44.188,-62.781 38.375,-62.781C30.227,-62.781 23.945,-60.164 19.531,-54.938C15.113,-49.707 12.906,-42.441 12.906,-33.141C12.906,-23.836 15.113,-16.566 19.531,-11.328C23.945,-6.098 30.227,-3.484 38.375,-3.484C44.188,-3.484 51.16,-6.973 59.297,-13.953L59.297,-6.969C53.484,-1.156 46.508,1.75 38.375,1.75C27.906,1.75 19.766,-1.156 13.953,-6.969Z" style="fill:rgb(254,244,200);"/>
                            </g>
                            <g transform="matrix(1,0,0,1,552.856,714.636)">
                                <path d="M6.969,0L6.969,-69.766L13.953,-69.766L13.953,-40.813C18.598,-46.852 23.828,-49.875 29.641,-49.875C35.461,-49.875 39.828,-48.535 42.734,-45.859C45.641,-43.191 47.094,-38.367 47.094,-31.391L47.094,0L40.109,0L40.109,-29.656C40.109,-34.301 39.234,-37.844 37.484,-40.281C35.742,-42.727 32.547,-43.953 27.891,-43.953C23.242,-43.953 18.598,-40.926 13.953,-34.875L13.953,0L6.969,0Z" style="fill:rgb(254,244,200);"/>
                            </g>
                            <g transform="matrix(1,0,0,1,606.923,714.636)">
                                <path d="M6.969,0L6.969,-48.828L13.953,-48.828L13.953,-38.375C18.598,-46.039 25.57,-49.875 34.875,-49.875L34.875,-42.906C25.57,-42.906 18.598,-39.066 13.953,-31.391L13.953,0L6.969,0Z" style="fill:rgb(254,244,200);"/>
                            </g>
                            <g transform="matrix(1,0,0,1,641.805,714.636)">
                                <path d="M6.969,0L6.969,-48.828L13.953,-48.828L13.953,0L6.969,0ZM6.969,-59.297L6.969,-66.281L13.953,-66.281L13.953,-59.297L6.969,-59.297Z" style="fill:rgb(254,244,200);"/>
                            </g>
                            <g transform="matrix(1,0,0,1,662.734,714.636)">
                                <path d="M5.234,-2.797L5.234,-8.719C11.047,-5.227 16.859,-3.484 22.672,-3.484C28.484,-3.484 32.145,-4.352 33.656,-6.094C35.164,-7.844 35.922,-10.172 35.922,-13.078C35.922,-15.984 34.875,-18.133 32.781,-19.531C30.695,-20.926 26.922,-21.914 21.453,-22.5C15.984,-23.082 11.91,-24.535 9.234,-26.859C6.566,-29.18 5.234,-32.379 5.234,-36.453C5.234,-40.523 6.801,-43.895 9.938,-46.563C13.082,-49.238 18.488,-50.578 26.156,-50.578C32.664,-50.578 37.898,-49.066 41.859,-46.047L41.859,-40.109C37.203,-43.598 31.969,-45.344 26.156,-45.344C20.344,-45.344 16.68,-44.469 15.172,-42.719C13.66,-40.977 12.906,-38.656 12.906,-35.75C12.906,-32.844 13.953,-30.926 16.047,-30C18.141,-29.07 21.914,-28.316 27.375,-27.734C32.844,-27.148 36.914,-25.754 39.594,-23.547C42.27,-21.336 43.609,-17.906 43.609,-13.25C43.609,-8.602 42.035,-4.941 38.891,-2.266C35.754,0.41 30.348,1.75 22.672,1.75C16.16,1.75 10.348,0.234 5.234,-2.797Z" style="fill:rgb(254,244,200);"/>
                            </g>
                            <g transform="matrix(1,0,0,1,711.569,714.636)">
                                <path d="M0,-42.563L0,-48.828L8.719,-48.828L8.719,-61.047L15.703,-61.047L15.703,-48.828L31.391,-48.828L31.391,-42.563L15.703,-42.563L15.703,-17.438C15.703,-8.832 18.609,-4.531 24.422,-4.531C27.211,-4.531 30.117,-5.344 33.141,-6.969L33.141,0C30.117,0.695 27.211,1.047 24.422,1.047C19.766,1.047 15.984,-0.285 13.078,-2.953C10.172,-5.629 8.719,-10.457 8.719,-17.438L8.719,-42.563L0,-42.563Z" style="fill:rgb(254,244,200);"/>
                            </g>
                            <g transform="matrix(1,0,0,1,746.451,714.636)">
                                <path d="M6.969,0L6.969,-48.828L13.953,-48.828L13.953,0L6.969,0ZM6.969,-59.297L6.969,-66.281L13.953,-66.281L13.953,-59.297L6.969,-59.297Z" style="fill:rgb(254,244,200);"/>
                            </g>
                            <g transform="matrix(1,0,0,1,767.38,714.636)">
                                <path d="M9.594,-2.953C6.688,-5.629 5.234,-9.297 5.234,-13.953C5.234,-20.93 8.43,-25.582 14.828,-27.906C21.223,-30.227 29.07,-31.391 38.375,-31.391C38.375,-36.047 37.5,-39.422 35.75,-41.516C34.008,-43.609 30.234,-44.656 24.422,-44.656C18.609,-44.656 13.957,-43.723 10.469,-41.859L8.719,-47.094C13.832,-48.945 19.066,-49.875 24.422,-49.875C32.086,-49.875 37.488,-48.535 40.625,-45.859C43.77,-43.191 45.344,-38.367 45.344,-31.391L45.344,0L38.375,0L38.375,-5.234C33.719,-1.047 28.484,1.047 22.672,1.047C16.859,1.047 12.5,-0.285 9.594,-2.953ZM12.906,-14.656C12.906,-11.863 13.66,-9.422 15.172,-7.328C16.68,-5.234 19.766,-4.188 24.422,-4.188C27.91,-4.188 32.563,-6.281 38.375,-10.469L38.375,-25.813C29.07,-25.813 22.5,-24.992 18.656,-23.359C14.82,-21.734 12.906,-18.832 12.906,-14.656Z" style="fill:rgb(254,244,200);"/>
                            </g>
                            <g transform="matrix(1,0,0,1,819.703,714.636)">
                                <path d="M6.969,0L6.969,-48.828L13.953,-48.828L13.953,-40.813C18.598,-46.852 23.828,-49.875 29.641,-49.875C35.461,-49.875 39.828,-48.535 42.734,-45.859C45.641,-43.191 47.094,-38.367 47.094,-31.391L47.094,0L40.109,0L40.109,-29.656C40.109,-34.301 39.234,-37.844 37.484,-40.281C35.742,-42.727 32.547,-43.953 27.891,-43.953C23.242,-43.953 18.598,-40.926 13.953,-34.875L13.953,0L6.969,0Z" style="fill:rgb(254,244,200);"/>
                            </g>
                            <g transform="matrix(1,0,0,1,873.77,714.636)">
                                <path d="M5.234,-2.797L5.234,-8.719C11.047,-5.227 16.859,-3.484 22.672,-3.484C28.484,-3.484 32.145,-4.352 33.656,-6.094C35.164,-7.844 35.922,-10.172 35.922,-13.078C35.922,-15.984 34.875,-18.133 32.781,-19.531C30.695,-20.926 26.922,-21.914 21.453,-22.5C15.984,-23.082 11.91,-24.535 9.234,-26.859C6.566,-29.18 5.234,-32.379 5.234,-36.453C5.234,-40.523 6.801,-43.895 9.938,-46.563C13.082,-49.238 18.488,-50.578 26.156,-50.578C32.664,-50.578 37.898,-49.066 41.859,-46.047L41.859,-40.109C37.203,-43.598 31.969,-45.344 26.156,-45.344C20.344,-45.344 16.68,-44.469 15.172,-42.719C13.66,-40.977 12.906,-38.656 12.906,-35.75C12.906,-32.844 13.953,-30.926 16.047,-30C18.141,-29.07 21.914,-28.316 27.375,-27.734C32.844,-27.148 36.914,-25.754 39.594,-23.547C42.27,-21.336 43.609,-17.906 43.609,-13.25C43.609,-8.602 42.035,-4.941 38.891,-2.266C35.754,0.41 30.348,1.75 22.672,1.75C16.16,1.75 10.348,0.234 5.234,-2.797Z" style="fill:rgb(254,244,200);"/>
                            </g>
                        </g>
                    </g>
                </g>
            </g>
        </g>
    </g>
</svg>
